<svg xmlns="http://www.w3.org/2000/svg" version="1.1" xmlns:xlink="http://www.w3.org/1999/xlink" xmlns:svgjs="http://svgjs.dev/svgjs" width="1500" height="356" viewBox="0 0 1500 356"><g transform="matrix(1,0,0,1,-0.9090909090911055,-0.606335336364026)"><svg viewBox="0 0 396 94" data-background-color="#ffffff" preserveAspectRatio="xMidYMid meet" height="356" width="1500" xmlns="http://www.w3.org/2000/svg" xmlns:xlink="http://www.w3.org/1999/xlink"><g id="tight-bounds" transform="matrix(1,0,0,1,0.24000000000003752,0.16009977982645296)"><svg viewBox="0 0 395.5199999999999 93.67980044034712" height="93.67980044034712" width="395.5199999999999"><g><svg viewBox="0 0 395.5199999999999 93.67980044034712" height="93.67980044034712" width="395.5199999999999"><g transform="matrix(1,0,0,1,0,57.89787491933584)"><svg viewBox="0 0 395.5199999999999 35.781925521011274" height="35.781925521011274" width="395.5199999999999"><g id="textblocktransform"><svg viewBox="0 0 395.5199999999999 35.781925521011274" height="35.781925521011274" width="395.5199999999999" id="textblock"><g><svg viewBox="0 0 395.5199999999999 35.781925521011274" height="35.781925521011274" width="395.5199999999999"><g transform="matrix(1,0,0,1,0,0)"><svg width="395.5199999999999" viewBox="1.58 -31.18 365.84000000000003 33.11" height="35.781925521011274" data-palette-color="#3d9970"><path d="M17.9 1.93L17.9 1.93Q14.08 1.93 11.05 0.84 8.03-0.25 5.9-2.36 3.78-4.48 2.68-7.63 1.58-10.78 1.58-14.93L1.58-14.93Q1.58-18.5 2.59-21.18 3.6-23.85 5.38-25.75 7.15-27.65 9.46-28.83 11.78-30 14.38-30.55 16.98-31.1 19.63-31.1L19.63-31.1Q21.5-31.1 23.3-30.76 25.1-30.43 26.54-29.83 27.98-29.23 28.84-28.46 29.7-27.7 29.7-26.83L29.7-26.83Q29.7-25.88 29.05-25.34 28.4-24.8 27.43-24.8L27.43-24.8Q26.83-24.8 26.14-25.05 25.45-25.3 24.51-25.63 23.58-25.95 22.24-26.21 20.9-26.48 18.98-26.48L18.98-26.48Q16.68-26.48 14.74-25.68 12.8-24.88 11.36-23.38 9.93-21.88 9.14-19.71 8.35-17.55 8.35-14.8L8.35-14.8Q8.35-10.75 9.61-8.16 10.88-5.58 13.29-4.36 15.7-3.15 19.1-3.15L19.1-3.15Q20.88-3.15 22.41-3.49 23.95-3.83 25.1-4.54 26.25-5.25 26.9-6.34 27.55-7.43 27.55-8.93L27.55-8.93Q27.55-10.15 26.85-11.09 26.15-12.03 24.76-12.59 23.38-13.15 21.33-13.23L21.33-13.23Q19.23-13.38 18.04-13.83 16.85-14.28 16.85-15.48L16.85-15.48Q16.85-16.43 17.59-16.95 18.32-17.48 19.7-17.69 21.08-17.9 23-17.9L23-17.9Q25.55-17.9 27.61-17.41 29.68-16.93 31.13-15.91 32.58-14.9 33.35-13.33 34.13-11.75 34.13-9.6L34.13-9.6Q34.13-6.4 32.91-4.17 31.7-1.95 29.51-0.61 27.33 0.73 24.38 1.33 21.43 1.93 17.9 1.93ZM41.5 1.05L41.5 1.05Q40.2 1.05 39.34 0.21 38.47-0.63 38.05-2.3L38.05-2.3Q37.87-3 37.75-4.11 37.62-5.23 37.51-6.56 37.4-7.9 37.34-9.3 37.27-10.7 37.23-12.03 37.2-13.35 37.2-14.4L37.2-14.4Q37.2-17.98 37.62-20.71 38.05-23.45 38.94-25.44 39.82-27.43 41.26-28.69 42.7-29.95 44.73-30.56 46.77-31.18 49.5-31.18L49.5-31.18Q52.1-31.18 54.45-30.61 56.8-30.05 58.61-28.93 60.42-27.8 61.46-26.13 62.5-24.45 62.5-22.25L62.5-22.25Q62.5-20.18 61.57-18.78 60.65-17.38 59.17-16.5 57.7-15.63 56.01-15.15 54.32-14.68 52.8-14.45L52.8-14.45Q51.95-14.33 51.62-14.18 51.3-14.03 51.3-13.73L51.3-13.73Q51.3-13.53 51.61-13.18 51.92-12.83 52.46-12.34 53-11.85 53.7-11.21 54.4-10.58 55.15-9.8L55.15-9.8Q55.87-9.08 56.84-8.1 57.8-7.13 58.77-6.09 59.75-5.05 60.59-4.11 61.42-3.18 61.95-2.5 62.47-1.83 62.47-1.6L62.47-1.6Q62.47-0.9 62.05-0.43 61.62 0.05 60.97 0.29 60.32 0.53 59.55 0.53L59.55 0.53Q58.75 0.53 57.79 0.05 56.82-0.43 55.76-1.28 54.7-2.13 53.6-3.25 52.5-4.38 51.4-5.7L51.4-5.7Q49.75-7.55 48.42-8.93 47.1-10.3 46.2-11.08 45.3-11.85 44.95-11.85L44.95-11.85Q44.7-11.85 44.56-11.64 44.42-11.43 44.36-10.89 44.3-10.35 44.29-9.43 44.27-8.5 44.27-7.08L44.27-7.08Q44.27-6.65 44.29-6 44.3-5.35 44.31-4.63 44.32-3.9 44.32-3.23 44.32-2.55 44.32-2.02 44.32-1.5 44.3-1.28L44.3-1.28Q44.1 0 43.34 0.53 42.57 1.05 41.5 1.05ZM47.02-16.5L47.02-16.5Q47.87-16.5 49.11-16.66 50.35-16.82 51.67-17.23 53-17.63 54.16-18.29 55.32-18.95 56.05-19.95 56.77-20.95 56.77-22.3L56.77-22.3Q56.77-23.7 56.11-24.68 55.45-25.65 54.34-26.24 53.22-26.83 51.87-27.1 50.52-27.38 49.15-27.38L49.15-27.38Q47.72-27.38 46.76-26.98 45.8-26.58 45.21-25.78 44.62-24.98 44.35-23.68L44.35-23.68Q44.17-22.95 44.09-22.23 44-21.5 43.95-20.79 43.9-20.08 43.9-19.4L43.9-19.4Q43.9-18.3 44.14-17.66 44.37-17.03 45.05-16.76 45.72-16.5 47.02-16.5ZM77.25 1.55L77.25 1.55Q74.07 1.55 71.9 0.4 69.72-0.75 68.53-3.08 67.34-5.4 66.97-8.95L66.97-8.95Q66.87-9.8 66.82-10.71 66.77-11.63 66.73-12.61 66.7-13.6 66.7-14.65 66.7-15.7 66.7-16.8L66.7-16.8Q66.7-21.08 67.52-23.86 68.34-26.65 70.11-28.23 71.87-29.8 74.63-30.45 77.4-31.1 81.22-31.1L81.22-31.1Q83.09-31.1 84.81-30.94 86.52-30.78 87.84-30.45 89.17-30.13 89.93-29.64 90.7-29.15 90.7-28.48L90.7-28.48Q90.7-27.78 90.28-27.36 89.87-26.95 89.22-26.83L89.22-26.83Q88.45-26.73 87.17-26.79 85.9-26.85 84.37-26.93 82.84-27 81.27-27L81.27-27Q79.02-27 77.5-26.66 75.97-26.33 75.05-25.55 74.12-24.78 73.72-23.45 73.32-22.13 73.32-20.18L73.32-20.18Q73.32-19.18 73.58-18.66 73.84-18.15 74.82-17.99 75.8-17.82 77.95-17.82L77.95-17.82Q78.47-17.82 79.25-17.84 80.02-17.85 80.86-17.88 81.7-17.9 82.43-17.9 83.17-17.9 83.59-17.9L83.59-17.9Q85.47-17.9 86.2-17.43 86.92-16.95 86.92-16.03L86.92-16.03Q86.92-14.7 86.06-14.21 85.2-13.73 83.77-13.73L83.77-13.73Q83.15-13.73 82.4-13.73 81.65-13.73 80.83-13.71 80.02-13.7 79.27-13.7 78.52-13.7 77.92-13.7L77.92-13.7Q75.7-13.7 74.62-13.56 73.55-13.43 73.23-12.96 72.92-12.5 72.92-11.5L72.92-11.5Q72.92-9.85 73.07-8.54 73.22-7.23 73.59-6.26 73.97-5.3 74.66-4.67 75.34-4.05 76.42-3.74 77.5-3.43 79.02-3.43L79.02-3.43Q80.92-3.43 82.75-3.55 84.57-3.68 86.05-3.79 87.52-3.9 88.34-3.9L88.34-3.9Q89.47-3.9 90-3.44 90.52-2.98 90.52-2.08L90.52-2.08Q90.52-1.07 89.28-0.38 88.05 0.33 86.06 0.75 84.07 1.18 81.75 1.36 79.42 1.55 77.25 1.55ZM105.67 1.55L105.67 1.55Q102.49 1.55 100.32 0.4 98.14-0.75 96.95-3.08 95.77-5.4 95.39-8.95L95.39-8.95Q95.29-9.8 95.24-10.71 95.19-11.63 95.16-12.61 95.12-13.6 95.12-14.65 95.12-15.7 95.12-16.8L95.12-16.8Q95.12-21.08 95.94-23.86 96.77-26.65 98.53-28.23 100.29-29.8 103.06-30.45 105.82-31.1 109.64-31.1L109.64-31.1Q111.52-31.1 113.23-30.94 114.94-30.78 116.27-30.45 117.59-30.13 118.36-29.64 119.12-29.15 119.12-28.48L119.12-28.48Q119.12-27.78 118.71-27.36 118.29-26.95 117.64-26.83L117.64-26.83Q116.87-26.73 115.59-26.79 114.32-26.85 112.79-26.93 111.27-27 109.69-27L109.69-27Q107.44-27 105.92-26.66 104.39-26.33 103.47-25.55 102.54-24.78 102.14-23.45 101.74-22.13 101.74-20.18L101.74-20.18Q101.74-19.18 102.01-18.66 102.27-18.15 103.24-17.99 104.22-17.82 106.37-17.82L106.37-17.82Q106.89-17.82 107.67-17.84 108.44-17.85 109.28-17.88 110.12-17.9 110.86-17.9 111.59-17.9 112.02-17.9L112.02-17.9Q113.89-17.9 114.62-17.43 115.34-16.95 115.34-16.03L115.34-16.03Q115.34-14.7 114.48-14.21 113.62-13.73 112.19-13.73L112.19-13.73Q111.57-13.73 110.82-13.73 110.07-13.73 109.26-13.71 108.44-13.7 107.69-13.7 106.94-13.7 106.34-13.7L106.34-13.7Q104.12-13.7 103.04-13.56 101.97-13.43 101.66-12.96 101.34-12.5 101.34-11.5L101.34-11.5Q101.34-9.85 101.49-8.54 101.64-7.23 102.02-6.26 102.39-5.3 103.08-4.67 103.77-4.05 104.84-3.74 105.92-3.43 107.44-3.43L107.44-3.43Q109.34-3.43 111.17-3.55 112.99-3.68 114.47-3.79 115.94-3.9 116.77-3.9L116.77-3.9Q117.89-3.9 118.42-3.44 118.94-2.98 118.94-2.08L118.94-2.08Q118.94-1.07 117.71-0.38 116.47 0.33 114.48 0.75 112.49 1.18 110.17 1.36 107.84 1.55 105.67 1.55ZM127.89 1.2L127.89 1.2Q126.87 1.2 126.2 0.56 125.54-0.08 125.09-1.23L125.09-1.23Q124.87-1.83 124.67-3.21 124.47-4.6 124.29-6.45 124.12-8.3 123.98-10.31 123.84-12.33 123.74-14.25 123.64-16.18 123.59-17.71 123.54-19.25 123.54-20.08L123.54-20.08Q123.54-23 123.93-25.04 124.31-27.08 125.34-28.16 126.37-29.25 128.31-29.25L128.31-29.25Q129.66-29.25 130.99-28.16 132.31-27.08 134.09-24.73 135.87-22.38 138.49-18.6L138.49-18.6Q141.99-13.45 144.12-10.96 146.24-8.47 147.17-8.47L147.17-8.47Q147.62-8.47 147.9-8.7 148.19-8.93 148.35-9.61 148.52-10.3 148.56-11.7L148.56-11.7Q148.62-12.3 148.62-13.53 148.62-14.75 148.6-16.29 148.59-17.82 148.56-19.45 148.54-21.08 148.54-22.53 148.54-23.98 148.55-25 148.56-26.03 148.62-26.38L148.62-26.38Q148.92-27.88 149.59-28.45 150.27-29.03 151.47-29.03L151.47-29.03Q152.37-29.03 152.98-28.71 153.59-28.4 153.98-27.79 154.37-27.18 154.55-26.21 154.74-25.25 154.79-23.95L154.79-23.95Q154.81-23.2 154.84-21.78 154.87-20.35 154.89-18.54 154.92-16.73 154.9-14.78 154.89-12.83 154.85-10.99 154.81-9.15 154.74-7.65 154.67-6.15 154.52-5.25L154.52-5.25Q154.22-3.33 153.6-2.04 152.99-0.75 151.98-0.11 150.97 0.53 149.39 0.53L149.39 0.53Q147.97 0.53 146.27-0.91 144.56-2.35 142.6-4.89 140.64-7.43 138.41-10.63L138.41-10.63Q136.99-12.68 135.77-14.41 134.54-16.15 133.6-17.44 132.66-18.73 132.02-19.44 131.37-20.15 131.04-20.15L131.04-20.15Q130.47-20.15 130.24-19.49 130.02-18.82 130.02-16.82L130.02-16.82Q130.02-15.68 130.06-14.29 130.12-12.9 130.19-11.43 130.27-9.95 130.37-8.46 130.47-6.98 130.52-5.59 130.56-4.2 130.58-3.03 130.59-1.85 130.52-1L130.52-1Q130.24 0.28 129.59 0.74 128.94 1.2 127.89 1.2ZM180.44 0.83L180.44 0.83Q177.19 0.13 176-2.45 174.81-5.03 174.81-9.3L174.81-9.3Q174.81-10.53 174.87-12.11 174.94-13.7 175.06-15.43 175.19-17.15 175.34-18.8 175.49-20.45 175.64-21.83 175.79-23.2 175.91-24.05L175.91-24.05Q176.41-27.38 177.39-28.88 178.36-30.38 180.04-30.38L180.04-30.38Q181.11-30.38 181.64-29.91 182.16-29.45 182.34-28.6 182.51-27.75 182.51-26.58L182.51-26.58Q182.51-25.8 182.46-24.76 182.41-23.73 182.36-22.55 182.31-21.38 182.26-20.09 182.21-18.8 182.16-17.53 182.11-16.25 182.1-15.04 182.09-13.83 182.11-12.75L182.11-12.75Q182.16-10.63 182.37-9.2 182.59-7.78 183.21-6.96 183.84-6.15 185.05-5.79 186.26-5.43 188.31-5.4L188.31-5.4Q190.09-5.33 191.67-5.26 193.26-5.2 194.29-5.13L194.29-5.13Q195.79-5.23 196.74-5.21 197.69-5.2 198.16-5.03L198.16-5.03Q198.56-4.83 198.75-4.46 198.94-4.1 198.94-3.45L198.94-3.45Q198.94-2.4 198.29-1.68 197.64-0.95 196.47-0.45 195.31 0.05 193.79 0.43L193.79 0.43Q192.19 0.8 190.09 1.03 187.99 1.25 185.91 1.25L185.91 1.25Q185.09 1.25 184.07 1.21 183.06 1.18 182.1 1.07 181.14 0.98 180.44 0.83ZM206.03 0.33L206.03 0.33Q204.38 0.33 203.6-0.88 202.81-2.08 202.81-3.98L202.81-3.98Q202.81-4.78 202.81-6.23 202.81-7.68 202.83-9.55 202.86-11.43 202.9-13.53 202.93-15.63 203-17.75 203.06-19.88 203.16-21.8 203.26-23.73 203.38-25.23L203.38-25.23Q203.66-27.65 204.36-28.65 205.06-29.65 206.63-29.65L206.63-29.65Q207.96-29.65 208.56-28.64 209.16-27.63 209.33-25.88L209.33-25.88Q209.38-24.8 209.43-23.18 209.48-21.55 209.51-19.63 209.53-17.7 209.55-15.69 209.56-13.68 209.56-11.81 209.56-9.95 209.56-8.44 209.56-6.93 209.53-6.03L209.53-6.03Q209.53-3.65 209.21-2.26 208.88-0.88 208.15-0.28 207.41 0.33 206.03 0.33ZM225.43 1.38L225.43 1.38Q222.68 1.38 220.77 1.1 218.86 0.83 217.67 0.06 216.48-0.7 215.88-2.13 215.28-3.55 215.16-5.83L215.16-5.83Q215.11-6.98 215.09-8.53 215.08-10.08 215.11-11.8 215.13-13.53 215.19-15.25 215.26-16.98 215.33-18.49 215.41-20 215.48-21.08L215.48-21.08Q215.71-24.43 217.07-26.39 218.43-28.35 221.03-29.19 223.63-30.03 227.58-30.03L227.58-30.03Q229.83-30.03 232.02-29.59 234.21-29.15 235.98-28.23 237.76-27.3 238.82-25.8 239.88-24.3 239.88-22.15L239.88-22.15Q239.88-20.48 239.22-19.31 238.56-18.15 237.62-17.43 236.68-16.7 235.78-16.35L235.78-16.35Q234.88-16 234.26-15.8 233.63-15.6 233.63-15.43L233.63-15.43Q233.63-15.28 234.53-15.13 235.43-14.98 236.76-14.58L236.76-14.58Q238.56-14.05 239.89-13.18 241.23-12.3 241.96-11 242.68-9.7 242.68-7.93L242.68-7.93Q242.68-6.18 241.74-4.59 240.81-3 239.53-1.98L239.53-1.98Q238.53-1.18 236.97-0.55 235.41 0.08 233.49 0.51 231.58 0.95 229.52 1.16 227.46 1.38 225.43 1.38ZM225.26-3.03L225.26-3.03Q227.86-3.03 230.01-3.36 232.16-3.7 233.72-4.4 235.28-5.1 236.14-6.15 237.01-7.2 237.01-8.6L237.01-8.6Q237.01-9.85 236.04-10.65 235.08-11.45 233.51-11.93 231.93-12.4 230.06-12.63 228.18-12.85 226.32-12.91 224.46-12.98 222.98-12.98L222.98-12.98Q222.53-12.98 222.17-12.78 221.81-12.58 221.54-12.08 221.28-11.58 221.14-10.68 221.01-9.78 221.01-8.38L221.01-8.38Q221.01-6.83 221.13-5.8 221.26-4.78 221.68-4.16 222.11-3.55 222.96-3.29 223.81-3.03 225.26-3.03ZM222.01-16.9L222.01-16.9Q223.96-16.9 225.51-16.96 227.06-17.03 228.36-17.2 229.66-17.38 230.81-17.7L230.81-17.7Q232.63-18.2 233.69-19.19 234.76-20.18 234.76-22.1L234.76-22.1Q234.76-23.2 234.08-24.04 233.41-24.88 232.29-25.44 231.18-26 229.83-26.28 228.48-26.55 227.13-26.55L227.13-26.55Q225.88-26.55 224.76-26.3 223.63-26.05 222.82-25.54 222.01-25.03 221.66-24.3L221.66-24.3Q221.48-23.93 221.34-23.24 221.21-22.55 221.09-21.75 220.98-20.95 220.94-20.16 220.91-19.38 220.91-18.78L220.91-18.78Q220.91-17.88 221.14-17.39 221.38-16.9 222.01-16.9ZM249.23 1.05L249.23 1.05Q247.93 1.05 247.07 0.21 246.2-0.63 245.78-2.3L245.78-2.3Q245.6-3 245.48-4.11 245.35-5.23 245.24-6.56 245.13-7.9 245.07-9.3 245-10.7 244.97-12.03 244.93-13.35 244.93-14.4L244.93-14.4Q244.93-17.98 245.35-20.71 245.78-23.45 246.67-25.44 247.55-27.43 248.99-28.69 250.43-29.95 252.47-30.56 254.5-31.18 257.23-31.18L257.23-31.18Q259.83-31.18 262.18-30.61 264.53-30.05 266.34-28.93 268.15-27.8 269.19-26.13 270.23-24.45 270.23-22.25L270.23-22.25Q270.23-20.18 269.3-18.78 268.38-17.38 266.9-16.5 265.43-15.63 263.74-15.15 262.05-14.68 260.53-14.45L260.53-14.45Q259.68-14.33 259.35-14.18 259.03-14.03 259.03-13.73L259.03-13.73Q259.03-13.53 259.34-13.18 259.65-12.83 260.19-12.34 260.73-11.85 261.43-11.21 262.13-10.58 262.88-9.8L262.88-9.8Q263.6-9.08 264.56-8.1 265.53-7.13 266.5-6.09 267.48-5.05 268.31-4.11 269.15-3.18 269.68-2.5 270.2-1.83 270.2-1.6L270.2-1.6Q270.2-0.9 269.78-0.43 269.35 0.05 268.7 0.29 268.05 0.53 267.28 0.53L267.28 0.53Q266.48 0.53 265.52 0.05 264.55-0.43 263.49-1.28 262.43-2.13 261.33-3.25 260.23-4.38 259.13-5.7L259.13-5.7Q257.48-7.55 256.15-8.93 254.83-10.3 253.93-11.08 253.03-11.85 252.68-11.85L252.68-11.85Q252.43-11.85 252.29-11.64 252.15-11.43 252.09-10.89 252.03-10.35 252.02-9.43 252-8.5 252-7.08L252-7.08Q252-6.65 252.02-6 252.03-5.35 252.04-4.63 252.05-3.9 252.05-3.23 252.05-2.55 252.05-2.02 252.05-1.5 252.03-1.28L252.03-1.28Q251.83 0 251.07 0.53 250.3 1.05 249.23 1.05ZM254.75-16.5L254.75-16.5Q255.6-16.5 256.84-16.66 258.08-16.82 259.4-17.23 260.73-17.63 261.89-18.29 263.05-18.95 263.78-19.95 264.5-20.95 264.5-22.3L264.5-22.3Q264.5-23.7 263.84-24.68 263.18-25.65 262.06-26.24 260.95-26.83 259.6-27.1 258.25-27.38 256.88-27.38L256.88-27.38Q255.45-27.38 254.49-26.98 253.53-26.58 252.94-25.78 252.35-24.98 252.08-23.68L252.08-23.68Q251.9-22.95 251.82-22.23 251.73-21.5 251.68-20.79 251.63-20.08 251.63-19.4L251.63-19.4Q251.63-18.3 251.87-17.66 252.1-17.03 252.78-16.76 253.45-16.5 254.75-16.5ZM304.33 1L304.33 1Q303.3 1 302.56 0.49 301.83-0.03 301.25-1.05L301.25-1.05Q301.03-1.73 300.75-2.64 300.48-3.55 300.21-4.5 299.95-5.45 299.68-6.31 299.4-7.18 299.13-7.75L299.13-7.75Q298.78-8.55 298.26-8.93 297.75-9.3 296.75-9.45L296.75-9.45Q296.25-9.5 295.24-9.59 294.23-9.68 293.03-9.74 291.83-9.8 290.78-9.8L290.78-9.8Q289.18-9.8 287.53-9.73 285.88-9.65 284.68-9.53L284.68-9.53Q283.65-9.43 283.14-9.11 282.63-8.8 282.3-8.03L282.3-8.03Q281.98-7.3 281.63-6.28 281.28-5.25 280.93-4.13 280.58-3 280.23-1.93L280.23-1.93Q279.7-0.73 278.96-0.11 278.23 0.5 276.93 0.5L276.93 0.5Q275.93 0.5 275.25 0.18 274.58-0.15 274.25-0.9 273.93-1.65 273.93-2.88L273.93-2.88Q273.93-4.03 274.25-5.64 274.58-7.25 275.14-9.13 275.7-11 276.39-12.93 277.08-14.85 277.79-16.64 278.5-18.43 279.15-19.86 279.8-21.3 280.28-22.15L280.28-22.15Q281.13-23.73 282.21-25.18 283.3-26.63 284.64-27.76 285.98-28.9 287.58-29.56 289.18-30.23 291.1-30.23L291.1-30.23Q294.2-30.23 296.69-28.35 299.18-26.48 301.1-23.38L301.1-23.38Q301.83-22.33 302.56-20.66 303.3-19 304.03-16.99 304.75-14.98 305.38-12.83 306-10.68 306.49-8.6 306.98-6.53 307.24-4.78 307.5-3.03 307.5-1.83L307.5-1.83Q307.5-0.28 306.65 0.36 305.8 1 304.33 1ZM297.08-13.78L297.08-13.78Q297.63-13.88 297.8-14.2 297.98-14.53 297.98-15.23L297.98-15.23Q297.98-16 297.71-17.14 297.45-18.28 297-19.54 296.55-20.8 295.95-21.9L295.95-21.9Q295.1-23.53 293.95-24.61 292.8-25.7 291.48-25.7L291.48-25.7Q290.03-25.7 288.71-24.56 287.4-23.43 286.4-21.68L286.4-21.68Q285.98-20.98 285.53-20.08 285.08-19.18 284.7-18.23 284.33-17.28 284.09-16.44 283.85-15.6 283.85-15.03L283.85-15.03Q283.85-14.28 284.45-13.99 285.05-13.7 286.38-13.7L286.38-13.7Q289.18-13.7 291.23-13.7 293.28-13.7 294.71-13.7 296.15-13.7 297.08-13.78ZM314.57 1.05L314.57 1.05Q313.27 1.05 312.41 0.21 311.55-0.63 311.12-2.3L311.12-2.3Q310.95-3 310.82-4.11 310.7-5.23 310.59-6.56 310.47-7.9 310.41-9.3 310.35-10.7 310.31-12.03 310.27-13.35 310.27-14.4L310.27-14.4Q310.27-17.98 310.7-20.71 311.12-23.45 312.01-25.44 312.9-27.43 314.34-28.69 315.77-29.95 317.81-30.56 319.85-31.18 322.57-31.18L322.57-31.18Q325.17-31.18 327.52-30.61 329.87-30.05 331.69-28.93 333.5-27.8 334.54-26.13 335.57-24.45 335.57-22.25L335.57-22.25Q335.57-20.18 334.65-18.78 333.72-17.38 332.25-16.5 330.77-15.63 329.09-15.15 327.4-14.68 325.87-14.45L325.87-14.45Q325.02-14.33 324.7-14.18 324.37-14.03 324.37-13.73L324.37-13.73Q324.37-13.53 324.69-13.18 325-12.83 325.54-12.34 326.07-11.85 326.77-11.21 327.47-10.58 328.22-9.8L328.22-9.8Q328.95-9.08 329.91-8.1 330.87-7.13 331.85-6.09 332.82-5.05 333.66-4.11 334.5-3.18 335.02-2.5 335.55-1.83 335.55-1.6L335.55-1.6Q335.55-0.9 335.12-0.43 334.7 0.05 334.05 0.29 333.4 0.53 332.62 0.53L332.62 0.53Q331.82 0.53 330.86 0.05 329.9-0.43 328.84-1.28 327.77-2.13 326.67-3.25 325.57-4.38 324.47-5.7L324.47-5.7Q322.82-7.55 321.5-8.93 320.17-10.3 319.27-11.08 318.37-11.85 318.02-11.85L318.02-11.85Q317.77-11.85 317.64-11.64 317.5-11.43 317.44-10.89 317.37-10.35 317.36-9.43 317.35-8.5 317.35-7.08L317.35-7.08Q317.35-6.65 317.36-6 317.37-5.35 317.39-4.63 317.4-3.9 317.4-3.23 317.4-2.55 317.4-2.02 317.4-1.5 317.37-1.28L317.37-1.28Q317.17 0 316.41 0.53 315.65 1.05 314.57 1.05ZM320.1-16.5L320.1-16.5Q320.95-16.5 322.19-16.66 323.42-16.82 324.75-17.23 326.07-17.63 327.24-18.29 328.4-18.95 329.12-19.95 329.85-20.95 329.85-22.3L329.85-22.3Q329.85-23.7 329.19-24.68 328.52-25.65 327.41-26.24 326.3-26.83 324.95-27.1 323.6-27.38 322.22-27.38L322.22-27.38Q320.8-27.38 319.84-26.98 318.87-26.58 318.29-25.78 317.7-24.98 317.42-23.68L317.42-23.68Q317.25-22.95 317.16-22.23 317.07-21.5 317.02-20.79 316.97-20.08 316.97-19.4L316.97-19.4Q316.97-18.3 317.21-17.66 317.45-17.03 318.12-16.76 318.8-16.5 320.1-16.5ZM352.32 0.5L352.32 0.5Q350.92 0.5 350.32-0.19 349.72-0.88 349.47-2.33L349.47-2.33Q349.4-2.85 349.36-3.53 349.32-4.2 349.28-4.95 349.25-5.7 349.21-6.46 349.17-7.23 349.12-7.93L349.12-7.93Q349.02-9.45 348.77-10.58 348.52-11.7 347.47-12.4L347.47-12.4Q346.3-13.18 345.18-13.93 344.07-14.68 343.15-15.53L343.15-15.53Q342.1-16.5 341.25-17.82 340.4-19.15 339.81-20.66 339.22-22.18 338.9-23.73 338.57-25.28 338.57-26.63L338.57-26.63Q338.57-27.73 339.01-28.5 339.45-29.28 340.21-29.69 340.97-30.1 341.95-30.1L341.95-30.1Q342.77-30.1 343.42-29.39 344.07-28.68 344.62-27.03L344.62-27.03Q344.92-25.85 345.37-24.61 345.82-23.38 346.4-22.23L346.4-22.23Q347.12-20.68 348.05-19.39 348.97-18.1 350.11-17.35 351.25-16.6 352.57-16.6L352.57-16.6Q353.77-16.6 354.93-17.32 356.1-18.05 357.17-19.2L357.17-19.2Q358.55-20.7 359.65-22.6 360.75-24.5 361.37-26.13L361.37-26.13Q362.17-27.9 362.82-28.74 363.47-29.58 364.27-29.58L364.27-29.58Q365.2-29.58 365.91-29.1 366.62-28.63 367.02-27.85 367.42-27.08 367.42-26.1L367.42-26.1Q367.42-24.9 367.05-23.5 366.67-22.1 366-20.65 365.32-19.2 364.41-17.86 363.5-16.53 362.45-15.48L362.45-15.48Q361.22-14.25 359.98-13.38 358.75-12.5 357.7-11.83L357.7-11.83Q357-11.38 356.61-10.98 356.22-10.58 356.02-10.1 355.82-9.63 355.65-8.9L355.65-8.9Q355.57-8.38 355.5-7.6 355.42-6.83 355.35-5.94 355.27-5.05 355.2-4.14 355.12-3.23 355.02-2.43L355.02-2.43Q354.85-1.05 354.16-0.28 353.47 0.5 352.32 0.5Z" opacity="1" transform="matrix(1,0,0,1,0,0)" fill="#3d9970" class="wordmark-text-0" data-fill-palette-color="primary" id="text-0"></path></svg></g></svg></g></svg></g></svg></g><g transform="matrix(1,0,0,1,173.03468946498117,0)"><svg viewBox="0 0 49.450621070037585 49.450621070037585" height="49.450621070037585" width="49.450621070037585"><g><svg xmlns="http://www.w3.org/2000/svg" xmlns:xlink="http://www.w3.org/1999/xlink" version="1.1" x="0" y="0" viewBox="7.261 6.964 75.477 75.477" enable-background="new 0 0 90 90" xml:space="preserve" height="49.450621070037585" width="49.450621070037585" class="icon-icon-0" data-fill-palette-color="accent" id="icon-0"><g fill="#ffbd00" data-fill-palette-color="accent"><polygon points="43.583,37.298 32.386,9.106 29.752,10.152 41.15,38.849 43.583,41.282  " fill="#ffbd00" data-fill-palette-color="accent"></polygon><polygon points="46.418,52.112 57.613,80.299 60.247,79.252 48.85,50.556 46.418,48.125  " fill="#ffbd00" data-fill-palette-color="accent"></polygon><polygon points="37.596,46.119 9.403,57.317 10.45,59.951 39.146,48.554 41.58,46.119  " fill="#ffbd00" data-fill-palette-color="accent"></polygon><polygon points="52.409,43.286 80.598,32.09 79.551,29.455 50.855,40.853 48.422,43.286  " fill="#ffbd00" data-fill-palette-color="accent"></polygon><polygon points="38.762,40.468 10.91,28.452 9.788,31.053 38.139,43.286 41.579,43.286  " fill="#ffbd00" data-fill-palette-color="accent"></polygon><polygon points="51.239,48.938 79.089,60.954 80.212,58.352 51.861,46.12 48.421,46.12  " fill="#ffbd00" data-fill-palette-color="accent"></polygon><polygon points="49.236,38.463 61.252,10.613 58.649,9.49 46.418,37.841 46.418,41.281  " fill="#ffbd00" data-fill-palette-color="accent"></polygon><polygon points="40.765,50.943 28.75,78.793 31.352,79.916 43.583,51.565 43.583,48.125  " fill="#ffbd00" data-fill-palette-color="accent"></polygon><polygon points="48.85,50.556 70.683,72.39 72.687,70.386 51.239,48.938 47.579,47.359  " fill="#ffbd00" data-fill-palette-color="accent"></polygon><polygon points="41.15,38.849 19.316,17.015 17.313,19.019 38.762,40.468 42.42,42.046  " fill="#ffbd00" data-fill-palette-color="accent"></polygon><polygon points="43.583,42.548 42.42,42.046 42.913,43.286 43.583,43.286  " fill="#ffbd00" data-fill-palette-color="accent"></polygon><polygon points="46.418,46.857 47.579,47.359 47.087,46.119 46.418,46.119  " fill="#ffbd00" data-fill-palette-color="accent"></polygon><polygon points="50.855,40.853 72.688,19.02 70.684,17.016 49.236,38.463 47.657,42.123  " fill="#ffbd00" data-fill-palette-color="accent"></polygon><polygon points="39.146,48.554 17.313,70.387 19.317,72.391 40.765,50.943 42.344,47.283  " fill="#ffbd00" data-fill-palette-color="accent"></polygon><polygon points="47.155,43.286 47.657,42.123 46.418,42.615 46.418,43.286  " fill="#ffbd00" data-fill-palette-color="accent"></polygon><polygon points="42.846,46.119 42.344,47.283 43.583,46.791 43.583,46.119  " fill="#ffbd00" data-fill-palette-color="accent"></polygon><polygon points="82.738,43.286 52.409,43.286 48.704,44.757 51.861,46.12 82.738,46.12  " fill="#ffbd00" data-fill-palette-color="accent"></polygon><polygon points="38.139,43.286 7.261,43.286 7.261,46.119 37.596,46.119 41.298,44.649  " fill="#ffbd00" data-fill-palette-color="accent"></polygon><polygon points="42.475,44.182 41.298,44.649 42.522,45.177 42.997,44.703  " fill="#ffbd00" data-fill-palette-color="accent"></polygon><polygon points="47.005,44.704 47.526,45.225 48.704,44.757 47.479,44.229  " fill="#ffbd00" data-fill-palette-color="accent"></polygon><polygon points="42.913,43.286 41.579,43.286 42.475,44.182 43.16,43.909  " fill="#ffbd00" data-fill-palette-color="accent"></polygon><polygon points="47.087,46.119 48.421,46.12 47.526,45.225 46.84,45.498  " fill="#ffbd00" data-fill-palette-color="accent"></polygon><polygon points="43.583,43.741 43.16,43.909 43.339,44.36 43.583,44.116  " fill="#ffbd00" data-fill-palette-color="accent"></polygon><polygon points="46.418,45.666 46.84,45.498 46.661,45.047 46.418,45.29  " fill="#ffbd00" data-fill-palette-color="accent"></polygon><polygon points="42.522,45.177 41.58,46.119 42.846,46.119 43.138,45.443  " fill="#ffbd00" data-fill-palette-color="accent"></polygon><polygon points="47.479,44.229 48.422,43.286 47.155,43.286 46.863,43.963  " fill="#ffbd00" data-fill-palette-color="accent"></polygon><polygon points="43.318,45.025 43.138,45.443 43.583,45.635 43.583,45.29  " fill="#ffbd00" data-fill-palette-color="accent"></polygon><polygon points="46.683,44.382 46.863,43.963 46.418,43.771 46.418,44.117  " fill="#ffbd00" data-fill-palette-color="accent"></polygon><polygon points="46.534,44.727 46.661,45.047 47.005,44.704 46.683,44.382  " fill="#ffbd00" data-fill-palette-color="accent"></polygon><polygon points="43.339,44.36 42.997,44.703 43.318,45.025 43.467,44.681  " fill="#ffbd00" data-fill-palette-color="accent"></polygon><polygon points="46.418,44.996 46.534,44.727 46.418,44.435  " fill="#ffbd00" data-fill-palette-color="accent"></polygon><polygon points="43.467,44.681 43.583,44.976 43.583,44.41  " fill="#ffbd00" data-fill-palette-color="accent"></polygon><polygon points="46.418,37.841 46.418,6.964 43.583,6.964 43.583,37.298 45.054,41.001  " fill="#ffbd00" data-fill-palette-color="accent"></polygon><polygon points="43.583,51.565 43.583,82.441 46.418,82.441 46.418,52.112 44.946,48.407  " fill="#ffbd00" data-fill-palette-color="accent"></polygon><polygon points="45.521,42.178 45.054,41.001 44.526,42.225 45,42.699  " fill="#ffbd00" data-fill-palette-color="accent"></polygon><polygon points="44.479,47.229 44.946,48.407 45.475,47.182 45.001,46.707  " fill="#ffbd00" data-fill-palette-color="accent"></polygon><polygon points="44.526,42.225 43.583,41.282 43.583,42.548 44.261,42.841  " fill="#ffbd00" data-fill-palette-color="accent"></polygon><polygon points="45.475,47.182 46.418,48.125 46.418,46.857 45.741,46.565  " fill="#ffbd00" data-fill-palette-color="accent"></polygon><polygon points="45.323,46.386 45.741,46.565 45.933,46.119 45.589,46.119  " fill="#ffbd00" data-fill-palette-color="accent"></polygon><polygon points="44.679,43.021 44.261,42.841 44.069,43.286 44.414,43.286  " fill="#ffbd00" data-fill-palette-color="accent"></polygon><polygon points="43.583,46.791 43.583,48.125 44.479,47.229 44.207,46.544  " fill="#ffbd00" data-fill-palette-color="accent"></polygon><polygon points="46.418,42.615 46.418,41.281 45.521,42.178 45.794,42.863  " fill="#ffbd00" data-fill-palette-color="accent"></polygon><polygon points="44.038,46.119 44.207,46.544 44.658,46.364 44.413,46.119  " fill="#ffbd00" data-fill-palette-color="accent"></polygon><polygon points="45.962,43.286 45.794,42.863 45.343,43.042 45.587,43.286  " fill="#ffbd00" data-fill-palette-color="accent"></polygon><polygon points="44.658,46.364 45.001,46.707 45.323,46.386 44.979,46.237  " fill="#ffbd00" data-fill-palette-color="accent"></polygon><polygon points="45.343,43.042 45,42.699 44.679,43.021 45.023,43.169  " fill="#ffbd00" data-fill-palette-color="accent"></polygon><polygon points="44.979,46.237 45.274,46.119 44.707,46.119  " fill="#ffbd00" data-fill-palette-color="accent"></polygon><polygon points="45.023,43.169 44.729,43.286 45.293,43.286  " fill="#ffbd00" data-fill-palette-color="accent"></polygon><polygon points="44.069,43.286 43.583,43.286 43.583,43.741 43.932,43.603  " fill="#ffbd00" data-fill-palette-color="accent"></polygon><polygon points="45.933,46.119 46.418,46.119 46.418,45.666 46.069,45.804  " fill="#ffbd00" data-fill-palette-color="accent"></polygon><polygon points="46.069,45.804 46.194,45.514 45.796,45.913  " fill="#ffbd00" data-fill-palette-color="accent"></polygon><polygon points="43.932,43.603 43.807,43.893 44.205,43.494  " fill="#ffbd00" data-fill-palette-color="accent"></polygon><polygon points="43.583,45.635 43.583,46.119 44.038,46.119 43.899,45.771  " fill="#ffbd00" data-fill-palette-color="accent"></polygon><polygon points="46.418,43.771 46.418,43.286 45.962,43.286 46.1,43.634  " fill="#ffbd00" data-fill-palette-color="accent"></polygon><polygon points="43.899,45.771 44.19,45.896 43.791,45.497  " fill="#ffbd00" data-fill-palette-color="accent"></polygon><polygon points="46.1,43.634 45.81,43.509 46.209,43.908  " fill="#ffbd00" data-fill-palette-color="accent"></polygon><polygon points="46.418,45.29 46.418,44.996 46.194,45.514  " fill="#ffbd00" data-fill-palette-color="accent"></polygon><polygon points="43.583,44.116 43.583,44.41 43.807,43.893  " fill="#ffbd00" data-fill-palette-color="accent"></polygon><polygon points="45.587,43.286 45.293,43.286 45.81,43.509  " fill="#ffbd00" data-fill-palette-color="accent"></polygon><polygon points="44.413,46.119 44.707,46.119 44.19,45.896  " fill="#ffbd00" data-fill-palette-color="accent"></polygon><polygon points="45.589,46.119 45.796,45.913 45.274,46.119  " fill="#ffbd00" data-fill-palette-color="accent"></polygon><polygon points="44.414,43.286 44.205,43.494 44.729,43.286  " fill="#ffbd00" data-fill-palette-color="accent"></polygon><polygon points="43.583,45.29 43.791,45.497 43.583,44.976  " fill="#ffbd00" data-fill-palette-color="accent"></polygon><polygon points="46.418,44.117 46.209,43.908 46.418,44.435  " fill="#ffbd00" data-fill-palette-color="accent"></polygon></g></svg></g></svg></g><g></g></svg></g><defs></defs></svg><rect width="395.5199999999999" height="93.67980044034712" fill="none" stroke="none" visibility="hidden"></rect></g></svg></g></svg>